<?xml version="1.0" encoding="UTF-8" standalone="no"?>
<svg
   xmlns:dc="http://purl.org/dc/elements/1.1/"
   xmlns:cc="http://creativecommons.org/ns#"
   xmlns:rdf="http://www.w3.org/1999/02/22-rdf-syntax-ns#"
   xmlns:svg="http://www.w3.org/2000/svg"
   xmlns="http://www.w3.org/2000/svg"
   xmlns:sodipodi="http://sodipodi.sourceforge.net/DTD/sodipodi-0.dtd"
   xmlns:inkscape="http://www.inkscape.org/namespaces/inkscape"
   width="2330.988"
   height="1842.6616"
   viewBox="0 0 238.69317 188.68999"
   preserveAspectRatio="xMinYMin meet"
   version="1.1"
   id="svg10"
   sodipodi:docname="og.svg"
   inkscape:version="0.92.3 (2405546, 2018-03-11)">
  <metadata
     id="metadata16">
    <rdf:RDF>
      <cc:Work
         rdf:about="">
        <dc:format>image/svg+xml</dc:format>
        <dc:type
           rdf:resource="http://purl.org/dc/dcmitype/StillImage" />
        <dc:title></dc:title>
      </cc:Work>
    </rdf:RDF>
  </metadata>
  <defs
     id="defs14" />
  <sodipodi:namedview
     pagecolor="#ffffff"
     bordercolor="#666666"
     borderopacity="1"
     objecttolerance="10"
     gridtolerance="10"
     guidetolerance="10"
     inkscape:pageopacity="0"
     inkscape:pageshadow="2"
     inkscape:window-width="1920"
     inkscape:window-height="1025"
     id="namedview12"
     showgrid="false"
     fit-margin-top="0"
     fit-margin-left="0"
     fit-margin-right="0"
     fit-margin-bottom="0"
     inkscape:zoom="0.32704988"
     inkscape:cx="1293.3628"
     inkscape:cy="938.13269"
     inkscape:window-x="1920"
     inkscape:window-y="27"
     inkscape:window-maximized="1"
     inkscape:current-layer="svg10" />
  <path
     d="m 223.386,162.44 a 6.572,6.572 0 0 1 -6.565,-6.566 6.571,6.571 0 0 1 6.565,-6.564 6.571,6.571 0 0 1 6.564,6.564 6.572,6.572 0 0 1 -6.564,6.565 z m -89.16,7.354 c 7.145,-10.292 15.613,-25.042 20.823,-42.76 11.066,2.271 21.394,5.951 32.598,11.542 l -53.42,31.218 z M 80.306,67.73 C 78.579,74.933 77.396,82.605 77.128,90.675 67.07,90.678 57.27,90.678 46.261,90.678 V 55.261 c 11.01,5.935 22.598,9.936 34.044,12.47 z M 15.323,39.037 a 6.572,6.572 0 0 1 -6.566,-6.565 6.572,6.572 0 0 1 6.566,-6.564 6.571,6.571 0 0 1 6.564,6.564 6.571,6.571 0 0 1 -6.564,6.565 z M 102.748,19.874 C 95.57,29.898 87.355,43.957 82.224,61.01 71.878,58.76 62.12,55.241 51.614,50.045 l 51.135,-30.17 z m 19.385,97.081 c 0.006,-2.691 0.014,-5.424 0.022,-8.189 5.673,-1.137 10.176,-5.512 11.524,-11.106 6.932,0.006 13.555,0.01 20.052,0.011 -0.264,7.48 -1.347,14.677 -2.99,21.497 -8.787,-1.43 -18.115,-2.104 -28.608,-2.213 z m -0.012,7 c 9.867,0.102 18.592,0.701 26.78,1.975 -6.926,22.825 -19.529,40.672 -26.634,49.495 a 5849.5,5849.5 0 0 1 -0.146,-51.47 z m -39.881,4.054 c 5.14,17.12 13.366,31.122 20.55,41.066 L 50.306,138.743 c 6.425,-3.019 17.44,-7.492 31.934,-10.734 z m 22.536,-30.346 c 1.327,5.503 5.709,9.821 11.253,11.041 -0.009,2.791 -0.017,5.552 -0.023,8.269 a 177.221,177.221 0 0 0 -29.545,2.97 c -1.7,-6.985 -2.812,-14.432 -3.061,-22.268 6.964,-0.002 14.016,-0.006 21.376,-0.012 z m 11.225,-26.276 c 0.007,2.763 0.015,5.518 0.024,8.27 -5.53,1.217 -9.903,5.519 -11.24,11.003 -7.36,0.006 -14.41,0.01 -21.374,0.013 0.267,-7.652 1.35,-14.926 2.998,-21.758 9.085,1.583 18.711,2.337 29.592,2.472 z M 115.932,17.65 c 0.01,15.356 0.02,31.085 0.052,46.735 C 105.741,64.259 96.724,63.59 88.251,62.17 95.372,38.866 108.525,21.493 115.929,13.026 Z M 154.9,60.8 C 149.706,43.452 141.387,29.033 134.332,18.92 l 53.776,31.27 c -6.64,3.016 -18.107,7.486 -33.207,10.61 z m -32.84,-43.154 -0.004,-4.699 c 7.015,8.575 19.693,26.218 26.717,49.006 a 174.046,174.046 0 0 1 -26.662,2.427 30724.11,30724.11 0 0 1 -0.052,-46.734 z m -2.833,84.41 c -4.343,0 -7.877,-3.533 -7.877,-7.877 0,-4.343 3.534,-7.877 7.877,-7.877 4.344,0 7.878,3.534 7.878,7.877 0,4.344 -3.534,7.878 -7.878,7.878 z m -3.083,73.846 c -7.312,-8.343 -20.582,-25.763 -27.801,-49.143 a 168.663,168.663 0 0 1 27.651,-2.783 5831.12,5831.12 0 0 0 0.15,51.926 z m 17.524,-85.245 c -1.361,-5.574 -5.856,-9.932 -11.517,-11.065 l -0.023,-8.21 a 182.843,182.843 0 0 0 28.53,-2.603 c 1.694,6.926 2.811,14.254 3.075,21.89 -6.5,-0.002 -13.13,-0.006 -20.065,-0.012 z m 57.711,-0.01 c -10.008,0.014 -21.207,0.022 -31.838,0.022 -0.257,-8.066 -1.556,-15.777 -3.291,-23.043 16.321,-3.385 29.125,-8.292 35.13,-11.488 v 34.51 z M 46.261,97.68 c 11.01,0 20.852,0 30.905,-0.003 0.244,8.297 1.332,16.153 3.083,23.505 -15.62,3.495 -26.982,8.378 -33.988,11.59 V 97.68 Z m 110.246,22.616 c 1.678,-7.151 2.616,-14.721 2.872,-22.624 10.629,0 21.993,-0.008 32.001,-0.023 v 35.327 c -11.009,-6.128 -22.947,-10.183 -34.873,-12.68 z m 66.879,20.261 c -4.114,0 -8.043,1.639 -10.797,4.287 -4.16,-2.61 -8.198,-4.99 -12.201,-7.172 V 47.436 L 119.012,0 42.426,45.244 c -4.087,-2.288 -8.278,-4.817 -12.746,-7.62 0.58,-1.613 0.936,-3.342 0.936,-5.152 0,-8.446 -6.86,-15.316 -15.305,-15.316 C 6.865,17.156 0,24.026 0,32.472 0,40.918 6.875,47.79 15.32,47.79 c 4.114,0 7.617,-1.638 10.372,-4.286 4.082,2.56 8.56,4.9 11.562,7.048 v 91.023 l 81.756,47.115 77.605,-45.284 a 303.02,303.02 0 0 1 12.307,7.316 15.183,15.183 0 0 0 -0.883,5.152 c 0,8.446 6.886,15.318 15.332,15.318 8.446,0 15.324,-6.872 15.324,-15.318 0,-8.446 -6.863,-15.317 -15.31,-15.317 z"
     id="path8"
     inkscape:connector-curvature="0" />
</svg>
